<?xml version="1.0" encoding="utf-8"?>
<!-- Generator: Adobe Illustrator 19.1.0, SVG Export Plug-In . SVG Version: 6.00 Build 0)  -->
<svg version="1.1" id="Isolation_Mode" xmlns="http://www.w3.org/2000/svg" xmlns:xlink="http://www.w3.org/1999/xlink" x="0px"
	 y="0px" viewBox="0 0 524 202" style="enable-background:new 0 0 524 202;" xml:space="preserve">
<style type="text/css">
	.st0{clip-path:url(#SVGID_2_);}
	.st1{clip-path:url(#SVGID_4_);fill:#526378;}
</style>
<g>
	<defs>
		<path id="SVGID_1_" d="M25.3,18.7c-2.7,0-5,2.3-5,5.1s2.2,5.1,5,5.1c2.7,0,5-2.3,5-5.1S28,18.7,25.3,18.7z M25.3,30.2
			c-3.4,0-6.2-2.8-6.2-6.4c0-3.5,2.8-6.4,6.2-6.4s6.2,2.8,6.2,6.4C31.5,27.3,28.7,30.2,25.3,30.2z M47.6,18.7c-2.7,0-5,2.3-5,5.1
			s2.2,5.1,5,5.1c2.7,0,5-2.3,5-5.1S50.4,18.7,47.6,18.7z M47.6,30.2c-3.4,0-6.2-2.8-6.2-6.4c0-3.5,2.8-6.4,6.2-6.4s6.2,2.8,6.2,6.4
			C53.8,27.3,51.1,30.2,47.6,30.2z M70,18.7c-2.7,0-5,2.3-5,5.1s2.2,5.1,5,5.1c2.7,0,5-2.3,5-5.1S72.8,18.7,70,18.7z M70,30.2
			c-3.4,0-6.2-2.8-6.2-6.4c0-3.5,2.8-6.4,6.2-6.4s6.2,2.8,6.2,6.4C76.2,27.3,73.4,30.2,70,30.2z M514.5,12.7c0-1.8-1.4-3.2-3.2-3.2
			H98.4c-1.8,0-3.2,1.4-3.2,3.2v22.2c0,1.8,1.4,3.2,3.2,3.2h411.3c1.8,0,4.8-1.4,4.8-3.2V12.7z M511.3,39.7H98.4
			c-2.6,0-4.8-2.1-4.8-4.8V12.7c0-2.6,2.1-4.8,4.8-4.8h412.8c2.6,0,4.8,2.1,4.8,4.8v22.2C516.1,37.6,513.9,39.7,511.3,39.7z
			 M516.1,47.6H1.6v309.6c0,3.5,2.8,6.4,6.4,6.4h508.1c3.5,0,6.4-2.8,6.4-6.4V47.6H516.1z M522.4,39.7V7.9c0-3.5-2.8-6.4-6.4-6.4
			H7.9c-3.5,0-6.4,2.8-6.4,6.4V46h520.8V39.7z M516.1,365.2H7.9c-4.4,0-7.9-3.6-7.9-7.9V7.9C0,3.6,3.6,0,7.9,0h508.1
			c4.4,0,7.9,3.6,7.9,7.9v349.3C524,361.7,520.4,365.2,516.1,365.2z"/>
	</defs>
	<clipPath id="SVGID_2_">
		<use xlink:href="#SVGID_1_"  style="overflow:visible;"/>
	</clipPath>
	<g class="st0">
		<defs>
			<rect id="SVGID_3_" x="-250" y="-277" width="1024" height="479"/>
		</defs>
		<clipPath id="SVGID_4_">
			<use xlink:href="#SVGID_3_"  style="overflow:visible;"/>
		</clipPath>
		<rect x="-5" y="-5" class="st1" width="534" height="375.2"/>
	</g>
</g>
</svg>
