<?xml version="1.0" encoding="utf-8"?>
<!-- Generator: Adobe Illustrator 19.1.0, SVG Export Plug-In . SVG Version: 6.00 Build 0)  -->
<svg version="1.1" id="Layer_1" xmlns="http://www.w3.org/2000/svg" xmlns:xlink="http://www.w3.org/1999/xlink" x="0px" y="0px"
	 viewBox="0 0 172 172" style="enable-background:new 0 0 172 172;" xml:space="preserve">
<style type="text/css">
	.st0{clip-path:url(#SVGID_2_);fill:#9AA6B5;}
	.st1{clip-path:url(#SVGID_4_);fill:#526378;}
	.st2{clip-path:url(#SVGID_6_);fill:#526378;}
	.st3{clip-path:url(#SVGID_8_);fill:#526378;}
</style>
<g>
	<g>
		<defs>
			<circle id="SVGID_1_" cx="86" cy="86" r="81"/>
		</defs>
		<clipPath id="SVGID_2_">
			<use xlink:href="#SVGID_1_"  style="overflow:visible;"/>
		</clipPath>
		<rect class="st0" width="172" height="172"/>
	</g>
	<g>
		<g>
			<defs>
				<path id="SVGID_3_" d="M102,107H65V63h29c0.6,0,1,0.4,1,1s-0.4,1-1,1H67v40h33V83c0-0.6,0.4-1,1-1s1,0.4,1,1V107"/>
			</defs>
			<clipPath id="SVGID_4_">
				<use xlink:href="#SVGID_3_"  style="overflow:visible;"/>
			</clipPath>
			<rect x="60" y="58" class="st1" width="47" height="54"/>
		</g>
		<g>
			<defs>
				<path id="SVGID_5_" d="M90.3,80.3l-1.4,2.8l2.8-1.4l19-19c0.3-0.3,0.4-0.7,0.2-1c-0.2-0.4-0.6-0.7-1-0.7c-0.2,0-0.5,0.1-0.7,0.3
					L90.3,80.3z M86.7,86.4c-0.3,0-0.5-0.1-0.7-0.3c-0.3-0.3-0.4-0.8-0.2-1.2l2.8-5.7c0-0.1,0.1-0.2,0.2-0.3l19.1-19.1
					c0.6-0.6,1.3-0.9,2.1-0.9c1.2,0,2.4,0.8,2.8,1.9c0.5,1.1,0.2,2.3-0.7,3.2L93,83.2c-0.1,0.1-0.2,0.1-0.3,0.2l-5.7,2.8
					C87,86.3,86.8,86.4,86.7,86.4z"/>
			</defs>
			<clipPath id="SVGID_6_">
				<use xlink:href="#SVGID_5_"  style="overflow:visible;"/>
			</clipPath>
			<rect x="80.7" y="54" class="st2" width="37.4" height="37.4"/>
		</g>
		<g>
			<defs>
				<path id="SVGID_7_" d="M108.6,67.3c-0.3,0-0.5-0.1-0.7-0.3l-2.8-2.8c-0.4-0.4-0.4-1,0-1.4c0.4-0.4,1-0.4,1.4,0l2.8,2.8
					c0.4,0.4,0.4,1,0,1.4C109.1,67.2,108.8,67.3,108.6,67.3"/>
			</defs>
			<clipPath id="SVGID_8_">
				<use xlink:href="#SVGID_7_"  style="overflow:visible;"/>
			</clipPath>
			<rect x="99.7" y="57.4" class="st3" width="14.8" height="14.8"/>
		</g>
	</g>
</g>
</svg>
