<?xml version="1.0" encoding="utf-8"?>
<!-- Generator: Adobe Illustrator 19.1.0, SVG Export Plug-In . SVG Version: 6.00 Build 0)  -->
<svg version="1.1" id="Layer_1" xmlns="http://www.w3.org/2000/svg" xmlns:xlink="http://www.w3.org/1999/xlink" x="0px" y="0px"
	 viewBox="0 0 172 172" style="enable-background:new 0 0 172 172;" xml:space="preserve">
<style type="text/css">
	.st0{clip-path:url(#SVGID_2_);fill:#9AA6B5;}
	.st1{clip-path:url(#SVGID_4_);fill:#526378;}
	.st2{clip-path:url(#SVGID_6_);fill:#526378;}
	.st3{clip-path:url(#SVGID_8_);fill:#526378;}
	.st4{clip-path:url(#SVGID_10_);fill:#526378;}
</style>
<g>
	<g>
		<defs>
			<circle id="SVGID_1_" cx="86" cy="86" r="81"/>
		</defs>
		<clipPath id="SVGID_2_">
			<use xlink:href="#SVGID_1_"  style="overflow:visible;"/>
		</clipPath>
		<rect class="st0" width="172" height="172"/>
	</g>
	<g>
		<g>
			<defs>
				<path id="SVGID_3_" d="M56.8,63.9c-0.7,0-1.3,0.6-1.3,1.3v33.2c0,0.7,0.6,1.3,1.3,1.3h6.4v8.4l8.4-8.4h38.8
					c0.7,0,1.3-0.6,1.3-1.3V65.2c0-0.7-0.6-1.3-1.3-1.3H56.8z M60.7,114.3v-12h-3.8c-2.1,0-3.8-1.7-3.8-3.8V65.2
					c0-2.1,1.7-3.8,3.8-3.8h53.6c2.1,0,3.8,1.7,3.8,3.8v33.2c0,2.1-1.7,3.8-3.8,3.8H72.7L60.7,114.3z"/>
			</defs>
			<clipPath id="SVGID_4_">
				<use xlink:href="#SVGID_3_"  style="overflow:visible;"/>
			</clipPath>
			<rect x="48" y="56.4" class="st1" width="71.3" height="62.9"/>
		</g>
		<g>
			<defs>
				<path id="SVGID_5_" d="M73.4,79.2c1.4,0,2.6,1.1,2.6,2.6c0,1.4-1.1,2.6-2.6,2.6c-1.4,0-2.6-1.1-2.6-2.6
					C70.9,80.4,72,79.2,73.4,79.2"/>
			</defs>
			<clipPath id="SVGID_6_">
				<use xlink:href="#SVGID_5_"  style="overflow:visible;"/>
			</clipPath>
			<rect x="65.9" y="74.2" class="st2" width="15.1" height="15.1"/>
		</g>
		<g>
			<defs>
				<path id="SVGID_7_" d="M93.9,79.2c1.4,0,2.6,1.1,2.6,2.6c0,1.4-1.1,2.6-2.6,2.6c-1.4,0-2.6-1.1-2.6-2.6
					C91.3,80.4,92.5,79.2,93.9,79.2"/>
			</defs>
			<clipPath id="SVGID_8_">
				<use xlink:href="#SVGID_7_"  style="overflow:visible;"/>
			</clipPath>
			<rect x="86.3" y="74.2" class="st3" width="15.1" height="15.1"/>
		</g>
		<g>
			<defs>
				<path id="SVGID_9_" d="M83.6,79.2c1.4,0,2.6,1.1,2.6,2.6c0,1.4-1.1,2.6-2.6,2.6s-2.6-1.1-2.6-2.6C81.1,80.4,82.2,79.2,83.6,79.2
					"/>
			</defs>
			<clipPath id="SVGID_10_">
				<use xlink:href="#SVGID_9_"  style="overflow:visible;"/>
			</clipPath>
			<rect x="76.1" y="74.2" class="st4" width="15.1" height="15.1"/>
		</g>
	</g>
</g>
</svg>
