<?xml version="1.0" encoding="utf-8"?>
<!-- Generator: Adobe Illustrator 19.1.0, SVG Export Plug-In . SVG Version: 6.00 Build 0)  -->
<svg version="1.1" id="Layer_1" xmlns="http://www.w3.org/2000/svg" xmlns:xlink="http://www.w3.org/1999/xlink" x="0px" y="0px"
	 viewBox="0 0 172 172" style="enable-background:new 0 0 172 172;" xml:space="preserve">
<style type="text/css">
	.st0{clip-path:url(#SVGID_2_);fill:#9AA6B5;}
	.st1{clip-path:url(#SVGID_4_);fill:#526378;}
	.st2{clip-path:url(#SVGID_6_);fill:#526378;}
	.st3{clip-path:url(#SVGID_8_);fill:#526378;}
	.st4{clip-path:url(#SVGID_10_);fill:#526378;}
	.st5{clip-path:url(#SVGID_12_);fill:#526378;}
	.st6{clip-path:url(#SVGID_14_);fill:#526378;}
	.st7{clip-path:url(#SVGID_16_);fill:#526378;}
</style>
<g>
	<g>
		<defs>
			<circle id="SVGID_1_" cx="86" cy="86" r="81"/>
		</defs>
		<clipPath id="SVGID_2_">
			<use xlink:href="#SVGID_1_"  style="overflow:visible;"/>
		</clipPath>
		<rect class="st0" width="172" height="172"/>
	</g>
	<g>
		<g>
			<defs>
				<path id="SVGID_3_" d="M56.6,102.3l13.1,12.5l45.6-47.9l-13.1-12.4L56.6,102.3z M68.6,117.9l-15.2-14.5c-0.6-0.6-0.6-1.5,0-2.1
					l47.6-50c0.6-0.6,1.5-0.6,2.1,0l15.2,14.6c0.6,0.6,0.6,1.5,0,2.1l-47.6,49.9C70.1,118.4,69.2,118.6,68.6,117.9z"/>
			</defs>
			<clipPath id="SVGID_4_">
				<use xlink:href="#SVGID_3_"  style="overflow:visible;"/>
			</clipPath>
			<rect x="48" y="45.9" class="st1" width="75.7" height="77.4"/>
		</g>
		<g>
			<defs>
				<polyline id="SVGID_5_" points="98.1,67.3 92.7,62.2 94.8,60 100.2,65.2 98.1,67.3 				"/>
			</defs>
			<clipPath id="SVGID_6_">
				<use xlink:href="#SVGID_5_"  style="overflow:visible;"/>
			</clipPath>
			<rect x="87.7" y="55" class="st2" width="17.5" height="17.3"/>
		</g>
		<g>
			<defs>
				<polyline id="SVGID_7_" points="91.9,74 86.5,68.8 88.6,66.6 94,71.8 91.9,74 				"/>
			</defs>
			<clipPath id="SVGID_8_">
				<use xlink:href="#SVGID_7_"  style="overflow:visible;"/>
			</clipPath>
			<rect x="81.5" y="61.6" class="st3" width="17.5" height="17.3"/>
		</g>
		<g>
			<defs>
				<polyline id="SVGID_9_" points="85.7,80.4 80.3,75.2 82.4,73 87.8,78.2 85.7,80.4 				"/>
			</defs>
			<clipPath id="SVGID_10_">
				<use xlink:href="#SVGID_9_"  style="overflow:visible;"/>
			</clipPath>
			<rect x="75.3" y="68" class="st4" width="17.5" height="17.3"/>
		</g>
		<g>
			<defs>
				<polyline id="SVGID_11_" points="79.5,86.9 74,81.7 76.1,79.6 81.5,84.7 79.5,86.9 				"/>
			</defs>
			<clipPath id="SVGID_12_">
				<use xlink:href="#SVGID_11_"  style="overflow:visible;"/>
			</clipPath>
			<rect x="69" y="74.6" class="st5" width="17.5" height="17.3"/>
		</g>
		<g>
			<defs>
				<polyline id="SVGID_13_" points="73.4,93.4 67.9,88.2 70,86.1 75.4,91.2 73.4,93.4 				"/>
			</defs>
			<clipPath id="SVGID_14_">
				<use xlink:href="#SVGID_13_"  style="overflow:visible;"/>
			</clipPath>
			<rect x="62.9" y="81.1" class="st6" width="17.5" height="17.3"/>
		</g>
		<g>
			<defs>
				<polyline id="SVGID_15_" points="67.1,99.9 61.6,94.8 63.7,92.6 69.1,97.8 67.1,99.9 				"/>
			</defs>
			<clipPath id="SVGID_16_">
				<use xlink:href="#SVGID_15_"  style="overflow:visible;"/>
			</clipPath>
			<rect x="56.6" y="87.6" class="st7" width="17.5" height="17.3"/>
		</g>
	</g>
</g>
</svg>
